<svg xmlns="http://www.w3.org/2000/svg" xmlns:xlink="http://www.w3.org/1999/xlink" width="0" height="0" style="position:absolute">
	
		<symbol id="arrow-left" viewBox="0 0 32 32">
			<path d="M27 16H5M10 11l-5 5 5 5"></path>
		</symbol>
	
		<symbol id="arrow-right" viewBox="0 0 32 32">
			<path d="M5 16h22M22 11l5 5-5 5"></path>
		</symbol>
	
		<symbol id="arrow-right-green" viewBox="0 0 32 32">
			<path d="M5 16h22M22 11l5 5-5 5" stroke="#00B185" stroke-width="1.5" stroke-linecap="round" stroke-linejoin="round"></path>
		</symbol>
	
		<symbol id="arrow-right-white" viewBox="0 0 24 25">
			<path d="M3.75 12.5h16.5M16.5 8.75l3.75 3.75-3.75 3.75" stroke="#fff" stroke-width="1.5" stroke-linecap="round" stroke-linejoin="round"></path>
		</symbol>
	
		<symbol id="call" viewBox="0 0 24 24">
			<path d="M21.97 18.33c0 .36-.08.73-.25 1.09-.17.36-.39.7-.68 1.02-.49.54-1.03.93-1.64 1.18-.6.25-1.25.38-1.95.38-1.02 0-2.11-.24-3.26-.73s-2.3-1.15-3.44-1.98a28.75 28.75 0 0 1-3.28-2.8 28.414 28.414 0 0 1-2.79-3.27c-.82-1.14-1.48-2.28-1.96-3.41C2.24 8.67 2 7.58 2 6.54c0-.68.12-1.33.36-1.93.24-.61.62-1.17 1.15-1.67C4.15 2.31 4.85 2 5.59 2c.28 0 .56.06.81.18.26.12.49.3.67.56l2.32 3.27c.18.25.31.48.4.7.09.21.14.42.14.61 0 .24-.07.48-.21.71-.13.23-.32.47-.56.71l-.76.79c-.11.11-.16.24-.16.4 0 .08.01.15.03.23.03.08.06.14.08.2.18.33.49.76.93 1.28.45.52.93 1.05 1.45 1.58.54.53 1.06 1.02 1.59 1.47.52.44.95.74 1.29.92.05.02.11.05.18.08.08.03.16.04.25.04.17 0 .3-.06.41-.17l.76-.75c.25-.25.49-.44.72-.56.23-.14.46-.21.71-.21.19 0 .39.04.61.13.22.09.45.22.7.39l3.31 2.35c.26.18.44.39.55.64.1.25.16.5.16.78z" stroke="#26A577" stroke-width="1.5" stroke-miterlimit="10"></path>
		</symbol>
	
		<symbol id="caret-down" viewBox="0 0 22 23">
			<path d="M17.875 8.75L11 15.625 4.125 8.75"></path>
		</symbol>
	
		<symbol id="check" viewBox="0 0 20 14">
			<path d="M1.5 7l5.66 5.66L18.5 1.34" stroke="#26A577" stroke-width="1.5" stroke-linecap="round" stroke-linejoin="round"></path>
		</symbol>
	
		<symbol id="cross" viewBox="0 0 33 32">
			<path d="M25.5 7l-18 18M25.5 25L7.5 7" stroke="#fff" stroke-width="1.5" stroke-linecap="round" stroke-linejoin="round"></path>
		</symbol>
	
		<symbol id="cross-black" viewBox="0 0 24 24">
			<path d="M18.75 5.25l-13.5 13.5M18.75 18.75L5.25 5.25" stroke="#2A2D33" stroke-width="1.5" stroke-linecap="round" stroke-linejoin="round"></path>
		</symbol>
	
		<symbol id="info-circle" viewBox="0 0 24 24">
			<path d="M12 22c5.5 0 10-4.5 10-10S17.5 2 12 2 2 6.5 2 12s4.5 10 10 10zM12 8v5" stroke="#26A577" stroke-width="1.5" stroke-linecap="round" stroke-linejoin="round"></path><path d="M11.995 16h.009" stroke="#26A577" stroke-width="2" stroke-linecap="round" stroke-linejoin="round"></path>
		</symbol>
	
		<symbol id="mail" viewBox="0 0 24 24">
			<path d="M2 8.5c0-3.5 2-5 5-5h10c3 0 5 1.5 5 5v7c0 3.5-2 5-5 5H7" stroke="#26A577" stroke-width="1.5" stroke-miterlimit="10" stroke-linecap="round" stroke-linejoin="round"></path><path d="M17 9l-3.13 2.5c-1.03.82-2.72.82-3.75 0L7 9M2 16.5h6M2 12.5h3" stroke="#26A577" stroke-width="1.5" stroke-miterlimit="10" stroke-linecap="round" stroke-linejoin="round"></path>
		</symbol>
	
		<symbol id="paperclip" viewBox="0 0 32 32">
			<path d="M12.973 21.78l9.9-9.9a2 2 0 1 0-2.83-2.828L7.317 21.78c-1.524 1.524-1.493 4.025.07 5.587 1.561 1.562 4.063 1.593 5.587.07l12.904-12.904a6 6 0 0 0-8.485-8.486l-9.9 9.9" stroke="#00B185" stroke-width="1.5" stroke-linecap="round" stroke-linejoin="round"></path>
		</symbol>
	
		<symbol id="swipe-icon" viewBox="0 0 18 30">
			<path fill-rule="evenodd" clip-rule="evenodd" d="M8.17 1.957L6.054 3.914l2.134 1.973 2.133 1.972V5.09l1.923-.017 1.922-.018.02-1.156.018-1.157-1.923-.017-1.924-.017-.036-1.354L10.286 0 8.17 1.957zM1.823 7.544c-.436.124-1.026.48-1.255.758-.616.748-.74 1.702-.327 2.514.112.221.729.838 2.26 2.262 1.159 1.077 2.107 1.975 2.107 1.996 0 .022-.19.055-.42.074-.805.068-1.636.569-1.97 1.189-.09.166-.269.674-.397 1.13-.129.455-.4 1.4-.601 2.099-.971 3.36-.996 3.46-.965 3.96.052.862.193 1.042 2.392 3.055 2.088 1.913 2.583 2.274 3.79 2.765A9.154 9.154 0 0 0 9.745 30c.691 0 1.995-.202 2.656-.412 2.367-.75 4.32-2.552 5.103-4.707.48-1.32.457-.955.487-7.565.015-3.3.008-6.127-.017-6.281a.959.959 0 0 0-.235-.478c-.364-.377-.935-.354-1.903.074-1.092.483-1.884 1.2-2.41 2.185-.378.707-.498 1.236-.516 2.286-.008.482-.03.876-.05.876-.02 0-1.956-1.776-4.303-3.947C6.21 9.859 4.13 7.984 3.938 7.864c-.658-.406-1.409-.52-2.115-.32z" fill="#989BA1"></path>
		</symbol>
	
</svg>
