<svg width="129" height="70" viewBox="0 0 129 70" fill="none" xmlns="http://www.w3.org/2000/svg">
<path fill-rule="evenodd" clip-rule="evenodd" d="M122.293 46.7185C121.469 47.1752 120.261 47.9347 119.609 48.4059C118.637 49.1084 117.213 49.289 111.686 49.4092C105.04 49.554 103.807 49.7674 103.807 50.7727C103.807 51.1169 105.878 51.2198 110.135 51.087L116.462 50.89L115.083 52.0111C113.035 53.6773 108.62 56.145 108.286 55.8109C108.127 55.6506 108.248 54.965 108.557 54.2876C109.322 52.6064 109.33 52.6185 107.469 52.6185C106.485 52.6185 104.391 53.3731 102.279 54.4894C98.0294 56.734 95.5989 57.3955 95.5989 56.3062C95.5989 55.2711 96.5022 54.8341 98.6913 54.811C99.7603 54.7999 100.673 54.5285 100.787 54.1876C101.155 53.0936 97.2911 53.5185 93.2176 55.0205C89.5173 56.3849 88.6144 56.4163 89.8934 55.1373C90.9541 54.0766 89.9446 54.0259 87.4359 55.0147C84.37 56.2232 84.3395 56.2237 84.9769 55.0326C85.3747 54.289 85.3438 54.0669 84.8426 54.0669C83.806 54.0669 81.4364 56.8137 81.755 57.6451C82.0075 58.3027 82.26 58.3061 84.0513 57.6741C86.5142 56.805 86.4253 56.8045 86.4253 57.6881C86.4253 58.0864 86.7237 58.4123 87.0887 58.4123C87.4537 58.4123 88.6762 58.0864 89.805 57.6881C92.3944 56.7746 92.702 56.7813 92.702 57.7547C92.702 58.4384 93.0781 58.4953 95.4781 58.1752C97.0053 57.972 99.5681 57.7648 101.174 57.7151C102.78 57.6649 104.34 57.4722 104.642 57.2864C104.942 57.1005 105.337 57.1883 105.518 57.4819C105.981 58.2303 108.795 57.6267 111.693 56.158C114.079 54.949 114.081 54.949 113.805 56.0026C113.402 57.5442 113.896 58.4123 115.176 58.4123C116.487 58.4123 117.238 57.5065 116.37 56.9701C115.475 56.4168 116.118 55.034 118.452 52.4915L120.552 50.2044H124.191C126.836 50.2044 127.993 50.0069 128.43 49.4802C128.955 48.8477 128.585 48.7559 125.508 48.7559H121.985L123.118 47.5508C124.564 46.0116 124.211 45.6558 122.293 46.7185ZM72.3039 47.3292C69.4408 47.7691 67.5954 48.4957 67.5954 49.1837C67.5954 49.4 68.7363 49.3918 70.1302 49.1644C74.6943 48.4209 79.9981 48.5464 81.3456 49.429C82.0148 49.8679 82.5628 50.5617 82.5628 50.9711C82.5628 52.2105 77.6714 56.6915 74.7745 58.1067C73.2792 58.8372 70.9385 59.7299 69.5735 60.0896L67.0909 60.7448L68.9893 58.492C70.0332 57.253 72.1175 54.8274 73.6215 53.1013C75.7299 50.6805 76.1698 49.9248 75.5455 49.7969C74.5524 49.5936 72.7225 51.3342 68.3197 56.6713C65.9336 59.5638 64.4431 60.936 63.2501 61.3382C58.798 62.8407 61.9276 63.267 68.3979 62.0397C73.8098 61.0132 78.4893 58.5663 81.7256 55.0712C84.5148 52.0584 85.3964 50.0847 84.4588 48.9549C83.2609 47.5112 76.7695 46.6431 72.3039 47.3292ZM9.48352 50.8021C4.58582 55.9688 0.414757 61.3184 0.586157 62.2125C0.712172 62.8716 1.59669 63.0227 6.04199 63.1439C12.3027 63.3148 14.4855 63.0111 14.4855 61.9692C14.4855 61.3198 13.7357 61.2691 8.63086 61.5738C3.22765 61.8963 2.81146 61.8606 3.23103 61.1108C3.48113 60.6642 6.06131 57.5674 8.96497 54.2296C11.8686 50.8914 14.3165 47.9685 14.4049 47.7338C14.4937 47.4996 14.1678 47.3075 13.6811 47.3075C13.1945 47.3075 11.3057 48.88 9.48352 50.8021ZM52.1013 48.9858C48.3503 51.7272 47.5097 52.1323 45.5654 52.1337C44.3849 52.1347 43.3276 52.4307 42.9717 52.8599C42.4662 53.4687 42.5531 53.5851 43.5164 53.5914C45.7957 53.6063 46.0878 54.3334 44.3478 55.6607C42.9872 56.6988 38.5713 58.8951 37.8452 58.8951C37.7254 58.8951 38.3951 58.2206 39.3337 57.3964C41.3707 55.6081 41.5392 54.5498 39.7866 54.5498C39.0068 54.5498 37.6844 55.2972 36.2862 56.5283C35.0506 57.6161 33.6427 58.7189 33.158 58.9786C32.3831 59.3943 32.3391 59.334 32.7959 58.4804C33.6225 56.9368 33.4404 55.5154 32.4164 55.5154C31.922 55.5154 30.08 56.1672 28.3231 56.9638C24.5252 58.686 24.4378 58.6981 25.1278 57.409C25.4233 56.8571 25.5372 56.073 25.3808 55.6665C25.0143 54.71 22.4148 55.1547 19.3402 56.6993C18.1308 57.3071 16.6196 57.9662 15.9822 58.1636L14.8235 58.5233L15.8944 57.0194C17.6137 54.6048 15.8789 55.1354 13.8134 57.6557C11.9493 59.9312 12.1279 60.6854 14.3923 60.0959C15.1074 59.9095 17.0869 59.7024 18.7913 59.6353C22.2429 59.4996 22.255 59.4779 17.3959 62.2352C13.5614 64.4108 8.77957 68.8325 9.49172 69.5446C10.6065 70.6594 13.4373 69.4616 17.1275 66.3131C19.1263 64.6078 20.7621 63.0068 20.7621 62.7562C20.7621 62.072 25.8037 58.8116 25.9915 59.3745C26.0809 59.642 26.9296 59.8607 27.8779 59.8607C29.6025 59.8607 29.6025 59.8607 28.6828 60.8843C28.1768 61.4473 26.568 62.664 25.1075 63.5886C22.4124 65.2948 18.348 68.9198 18.348 69.6175C18.348 69.828 19.0892 69.9999 19.9945 69.9999C21.8562 69.9999 25.5691 67.3666 27.763 64.4905C29.9043 61.6829 33.0069 60.1751 36.7236 60.136C39.3516 60.108 40.2535 59.8714 41.9105 58.7744C44.369 57.1473 44.5158 57.1391 44.1358 58.6537C43.864 59.7352 43.9794 59.8607 45.2458 59.8607C46.0362 59.8607 48.0283 59.0303 49.7645 57.9778C51.4722 56.9421 52.953 56.1749 53.0554 56.2729C53.1577 56.3709 52.8864 56.9933 52.4519 57.6562C52.0178 58.3186 51.6625 59.3031 51.6625 59.8438C51.6625 60.3841 51.6079 60.8481 51.5418 60.8747C51.4756 60.9012 47.039 61.0639 41.6836 61.2368C32.8572 61.5212 30.7367 61.7881 31.4705 62.522C31.8945 62.9459 56.9498 62.1445 56.6847 61.7152C56.5466 61.4917 55.7949 61.3092 55.0137 61.3092C53.4817 61.3092 53.108 60.6333 54.3725 60.148C54.9929 59.91 55.033 59.7072 54.5705 59.15C54.0992 58.5822 54.4116 57.9034 56.2343 55.5347C58.3558 52.7778 58.5904 52.6185 60.5304 52.6185C61.6592 52.6185 63.0043 52.2993 63.52 51.9097C64.3919 51.2502 64.3142 51.1995 62.4051 51.1855C60.1446 51.1686 59.9669 50.9484 61.1551 49.6361C62.3617 48.3026 61.4912 47.9453 59.9833 49.1547C58.1047 50.6607 57.1004 51.0117 53.938 51.2676L51.1444 51.494L52.6981 49.8906C54.6332 47.8941 54.2957 47.3823 52.1013 48.9858ZM18.9385 51.439C17.914 52.1564 17.4495 53.5841 18.2404 53.5841C19.0105 53.5841 20.7621 52.056 20.7621 51.3839C20.7621 50.4888 20.274 50.5033 18.9385 51.439ZM49.9156 53.5754C48.9983 53.9462 46.8343 56.8098 46.8343 57.6528C46.8343 58.0637 51.9396 55.3532 53.5937 54.0636L54.8008 53.1225L52.8695 53.1428C51.8073 53.1534 50.4781 53.3485 49.9156 53.5754ZM104.222 55.4995C103.595 56.0214 103.33 56.4559 103.632 56.4651C103.935 56.4738 104.696 56.0537 105.322 55.5313C105.95 55.0094 106.215 54.5749 105.912 54.5657C105.61 54.557 104.849 54.977 104.222 55.4995ZM37.9055 56.4757C37.7366 56.749 37.9302 56.8301 38.3599 56.6655C39.1961 56.3444 39.3492 55.9982 38.6549 55.9982C38.4048 55.9982 38.0678 56.2131 37.9055 56.4757ZM21.4579 57.1898C20.9427 57.5799 20.7505 57.9058 21.032 57.914C21.313 57.9227 21.9648 57.6103 22.4805 57.2207C22.9956 56.8306 23.1878 56.5047 22.9063 56.4965C22.6253 56.4878 21.9735 56.8002 21.4579 57.1898ZM29.6943 57.4467C29.3167 58.0579 29.9559 58.0579 30.9013 57.4467C31.5256 57.0435 31.5125 56.9778 30.8091 56.9711C30.3601 56.9672 29.8584 57.1811 29.6943 57.4467ZM83.9398 60.2219C78.2314 60.332 76.249 60.5309 75.8294 61.0364C75.3572 61.6052 78.5795 61.666 97.3862 61.4429C109.548 61.2991 119.601 61.0895 119.726 60.9775C120.912 59.9158 110.813 59.7029 83.9398 60.2219ZM16.3907 64.1414C15.2102 64.9023 13.5923 66.231 12.7956 67.0948L11.3472 68.6644L13.2785 67.6833C14.9283 66.8452 19.4952 62.7576 18.7821 62.7576C18.6474 62.7576 17.5712 63.3805 16.3907 64.1414ZM23.2037 66.1731C22.0768 66.9891 21.2715 67.7732 21.4135 67.9156C21.7085 68.2101 24.1578 66.5569 25.0887 65.4358C26.0195 64.3142 25.4768 64.5267 23.2037 66.1731Z" fill="#2A2D33"/>
<path d="M65.6697 2.40554C60.8453 2.40554 59.9932 2.10765 60.5648 0.618636C60.8251 -0.0606883 61.6512 -0.118626 67.2461 0.14789C74.7732 0.506623 76.9753 1.04207 78.755 2.94727C80.6558 4.98186 81.1155 7.97871 81.1024 18.2415C81.0807 34.5322 80.1812 35.7161 67.6965 35.8725L60.5943 35.9614L60.4668 20.1491L60.3398 4.33681H63.7258H67.1123V19.0627V33.7887H68.7795C71.0415 33.7887 72.5889 33.0075 73.5507 31.3794C74.2411 30.2105 74.3546 28.3691 74.3546 18.3371C74.3546 2.50211 74.302 2.40554 65.6697 2.40554Z" fill="#CB1318"/>
<path d="M46.834 40.0653V22.2011V4.33681H50.2137H53.5934V20.9805V37.6242L60.2322 37.7584C66.7024 37.8893 66.8748 37.9202 67.0254 38.979L67.1794 40.0653H57.007H46.834Z" fill="#CB1318"/>
</svg>
