<svg width="107" height="39" viewBox="0 0 107 39" fill="none" xmlns="http://www.w3.org/2000/svg">
<path d="M79.5641 39L7.62939e-06 39L4.21991e-06 9.35424e-06L79.5641 2.39852e-06L107 19.5L79.5641 39Z" fill="#011689"/>
<path d="M37.3643 13.2031L37.3643 26L35.6592 26L29.2168 16.1299L29.2168 26L27.5205 26L27.5205 13.2031L29.2168 13.2031L35.6855 23.0996L35.6855 13.2031L37.3643 13.2031ZM44.0703 26.1758C43.4082 26.1758 42.8076 26.0645 42.2686 25.8418C41.7353 25.6133 41.2754 25.2939 40.8887 24.8838C40.5078 24.4736 40.2148 23.9873 40.0098 23.4248C39.8047 22.8623 39.7021 22.2471 39.7021 21.5791L39.7021 21.21C39.7021 20.4365 39.8164 19.748 40.0449 19.1445C40.2734 18.5352 40.584 18.0195 40.9766 17.5977C41.3691 17.1758 41.8145 16.8564 42.3125 16.6397C42.8105 16.4229 43.3262 16.3145 43.8594 16.3145C44.5391 16.3145 45.125 16.4316 45.6172 16.666C46.1152 16.9004 46.5225 17.2285 46.8389 17.6504C47.1553 18.0664 47.3896 18.5586 47.542 19.127C47.6943 19.6895 47.7705 20.3047 47.7705 20.9727L47.7705 21.7022L40.6689 21.7022L40.6689 20.375L46.1445 20.375L46.1445 20.252C46.1211 19.8301 46.0332 19.4199 45.8809 19.0215C45.7344 18.6231 45.5 18.2949 45.1777 18.0371C44.8555 17.7793 44.416 17.6504 43.8594 17.6504C43.4902 17.6504 43.1504 17.7295 42.8398 17.8877C42.5293 18.04 42.2627 18.2686 42.04 18.5732C41.8174 18.8779 41.6445 19.25 41.5215 19.6895C41.3984 20.1289 41.3369 20.6357 41.3369 21.21L41.3369 21.5791C41.3369 22.0303 41.3984 22.4551 41.5215 22.8535C41.6504 23.2461 41.835 23.5918 42.0752 23.8906C42.3213 24.1895 42.6172 24.4238 42.9629 24.5938C43.3145 24.7637 43.7129 24.8486 44.1582 24.8486C44.7324 24.8486 45.2187 24.7314 45.6172 24.4971C46.0156 24.2627 46.3643 23.9492 46.6631 23.5566L47.6475 24.3389C47.4424 24.6494 47.1816 24.9453 46.8652 25.2266C46.5488 25.5078 46.1592 25.7363 45.6963 25.9121C45.2393 26.0879 44.6973 26.1758 44.0703 26.1758ZM52.0771 24.3125L54.5205 16.4902L55.5928 16.4902L55.3818 18.0459L52.8945 26L51.8486 26L52.0771 24.3125ZM50.4336 16.4902L52.5166 24.4004L52.666 26L51.5674 26L48.8076 16.4902L50.4336 16.4902ZM57.9307 24.3389L59.917 16.4902L61.5342 16.4902L58.7744 26L57.6846 26L57.9307 24.3389ZM55.8301 16.4902L58.2207 24.1807L58.4932 26L57.4561 26L54.8984 18.0283L54.6875 16.4902L55.8301 16.4902Z" fill="white"/>
</svg>
