<svg width="29" height="78" viewBox="0 0 29 78" fill="none" xmlns="http://www.w3.org/2000/svg">
<path d="M-8.74228e-07 58L-3.40949e-06 0L29 -1.26763e-06L29 58L14.5 78L-8.74228e-07 58Z" fill="#011689"/>
<path d="M8.625 39.8984L20 39.8984L20 41.4141L11.2266 47.1406L20 47.1406L20 48.6484L8.625 48.6484L8.625 47.1406L17.4219 41.3906L8.625 41.3906L8.625 39.8984ZM20.1562 33.9375C20.1562 34.526 20.0573 35.0599 19.8594 35.5391C19.6562 36.013 19.3724 36.4219 19.0078 36.7656C18.6432 37.1042 18.2109 37.3646 17.7109 37.5469C17.2109 37.7292 16.6641 37.8203 16.0703 37.8203L15.7422 37.8203C15.0547 37.8203 14.4427 37.7187 13.9062 37.5156C13.3646 37.3125 12.9062 37.0365 12.5312 36.6875C12.1562 36.3385 11.8724 35.9427 11.6797 35.5C11.487 35.0573 11.3906 34.599 11.3906 34.125C11.3906 33.5208 11.4948 33 11.7031 32.5625C11.9115 32.1198 12.2031 31.7578 12.5781 31.4766C12.9479 31.1953 13.3854 30.987 13.8906 30.8516C14.3906 30.7161 14.9375 30.6484 15.5312 30.6484L16.1797 30.6484L16.1797 36.9609L15 36.9609L15 32.0937L14.8906 32.0937C14.5156 32.1146 14.151 32.1927 13.7969 32.3281C13.4427 32.4583 13.151 32.6667 12.9219 32.9531C12.6927 33.2396 12.5781 33.6302 12.5781 34.125C12.5781 34.4531 12.6484 34.7552 12.7891 35.0312C12.9245 35.3073 13.1276 35.5443 13.3984 35.7422C13.6693 35.9401 14 36.0937 14.3906 36.2031C14.7812 36.3125 15.2318 36.3672 15.7422 36.3672L16.0703 36.3672C16.4714 36.3672 16.849 36.3125 17.2031 36.2031C17.5521 36.0885 17.8594 35.9245 18.125 35.7109C18.3906 35.4922 18.599 35.2292 18.75 34.9219C18.901 34.6094 18.9766 34.2552 18.9766 33.8594C18.9766 33.349 18.8724 32.9167 18.6641 32.5625C18.4557 32.2083 18.1771 31.8984 17.8281 31.6328L18.5234 30.7578C18.7995 30.9401 19.0625 31.1719 19.3125 31.4531C19.5625 31.7344 19.7656 32.0807 19.9219 32.4922C20.0781 32.8984 20.1562 33.3802 20.1562 33.9375ZM18.5 26.8203L11.5469 24.6484L11.5469 23.6953L12.9297 23.8828L20 26.0937L20 27.0234L18.5 26.8203ZM11.5469 28.2812L18.5781 26.4297L20 26.2969L20 27.2734L11.5469 29.7266L11.5469 28.2812ZM18.5234 21.6172L11.5469 19.8516L11.5469 18.4141L20 20.8672L20 21.8359L18.5234 21.6172ZM11.5469 23.4844L18.3828 21.3594L20 21.1172L20 22.0391L12.9141 24.3125L11.5469 24.5L11.5469 23.4844Z" fill="white"/>
</svg>
