<svg width="204" height="70" viewBox="0 0 204 70" fill="none" xmlns="http://www.w3.org/2000/svg">
<path fill-rule="evenodd" clip-rule="evenodd" d="M5.70906 10.6975C2.58125 12.1385 0.976628 14.1523 0.419424 17.3337C-0.348634 21.7221 1.79417 24.8283 8.37328 28.8627C11.6214 30.8542 14.4957 33.2296 15.0415 34.3742C16.3873 37.1949 15.1815 39.9626 12.142 41.0312C8.33446 42.3702 4.72253 40.2819 2.76623 35.6103C1.91596 33.5812 0.945418 31.9206 0.610487 31.9206C0.274795 31.9206 0 34.362 0 37.3461C0 42.43 0.0966729 42.7417 1.5285 42.2826C2.36888 42.0139 4.88771 42.2066 7.12566 42.7118C14.3335 44.3386 19.6323 41.184 20.3341 34.8472C20.8076 30.5748 19.1231 28.3483 11.8695 23.6598C5.89023 19.7951 4.62738 18.4853 4.59161 16.1092C4.53071 12.0909 11.243 10.4119 14.2742 13.687C15.1534 14.6367 16.1072 16.3679 16.3941 17.5326C17.3578 21.4488 18.269 20.5344 18.269 15.6516C18.269 10.8948 18.2317 10.8065 16.1757 10.7435C15.024 10.7082 12.7122 10.4464 11.0375 10.1624C9.05989 9.82687 7.19189 10.0142 5.70906 10.6975ZM32.6611 15.2509C30.0875 16.5982 28.8193 17.9709 27.2132 21.147C24.9448 25.6329 24.6243 28.9234 26.0044 33.5697C28.8018 42.9851 41.8207 46.4698 48.9776 39.7192C54.2231 34.7712 55.6922 26.105 52.317 20.0208C48.8969 13.8536 39.6277 11.6049 32.6611 15.2509ZM58.613 14.1369C58.613 14.5983 59.2981 15.3461 60.1354 15.7983C61.5535 16.5637 61.6578 17.4059 61.6578 28.0789C61.6578 38.8785 61.5619 39.6278 59.9915 41.1034L58.326 42.6688H65.3961C72.4228 42.6688 72.483 42.6527 75.0551 40.0585C77.1826 37.9127 77.6432 36.8709 77.6432 34.1992C77.6432 31.4799 77.2085 30.5364 74.9751 28.4121C73.5075 27.0163 72.6382 25.6674 73.044 25.4148C73.4489 25.1623 74.1211 23.7128 74.5367 22.1935C75.3558 19.2032 74.1508 15.6109 72.0582 14.801C69.5964 13.8482 58.613 13.3055 58.613 14.1369ZM82.9716 14.2214C82.9716 14.7457 83.6567 15.3553 84.494 15.5756C85.9358 15.9564 86.0165 16.6228 86.0165 28.1956C86.0165 38.348 85.8231 40.4884 84.8746 40.8554C82.3071 41.8496 84.0267 42.6688 88.6807 42.6688C93.3705 42.6688 95.5886 41.521 91.9158 40.9952C90.3774 40.7748 90.1803 40.2612 89.9763 35.9512L89.7502 31.1529H91.9805C93.8501 31.1529 94.8099 31.9751 97.9088 36.2322C99.942 39.0259 102.402 41.617 103.376 41.9901C105.818 42.9268 115.704 42.8546 115.704 41.9011C115.704 41.4788 115.19 41.1333 114.562 41.1333C113.137 41.1333 113.14 41.0128 114.701 36.0187L115.981 31.9206H119.872H123.762L125.248 36.3297C126.064 38.7541 126.634 41.1725 126.513 41.7038C126.357 42.3893 127.515 42.6688 130.514 42.6688C132.835 42.6688 134.734 42.3233 134.734 41.9011C134.734 41.4788 134.262 41.1333 133.685 41.1333C131.821 41.1333 130.629 38.857 125.917 26.3016C123.37 19.5164 120.932 13.8452 120.498 13.6993C120.065 13.5542 117.715 19.022 115.274 25.8502C112.834 32.6783 110.277 38.9622 109.593 39.8144C108.363 41.346 108.314 41.3314 105.288 38.5753C103.605 37.0413 101.31 34.4503 100.188 32.8181L98.1486 29.85L100.185 25.8924C102.561 21.2745 102.164 18.0976 98.906 15.644C96.4869 13.8221 82.9716 12.6153 82.9716 14.2214ZM138.54 27.0025C138.54 39.8635 138.467 40.5284 137.017 40.9107C133.867 41.7422 135.673 42.6688 140.443 42.6688C145.731 42.6688 146.503 42.2895 143.533 41.151C141.725 40.4577 141.669 40.1913 141.44 31.1874C141.31 26.0997 141.375 21.9393 141.585 21.9416C141.794 21.9439 146.175 26.6087 151.321 32.3075C156.467 38.0064 161.177 42.6688 161.788 42.6688C162.719 42.6688 162.898 40.4969 162.898 29.2335C162.898 17.8028 163.069 15.7983 164.04 15.7983C164.668 15.7983 165.182 15.2801 165.182 14.6467C165.182 13.7638 164.215 13.4951 161.04 13.4951C156.598 13.4951 154.744 14.6712 157.919 15.4751L159.854 15.9649V25.6528V35.3408L158.059 33.4384C157.071 32.3927 152.589 27.4777 148.098 22.5159C143.606 17.5541 139.618 13.4951 139.236 13.4951C138.842 13.4951 138.54 19.3521 138.54 27.0025ZM171.686 14.2075C171.446 14.5991 171.939 15.1411 172.783 15.4106C174.236 15.8758 174.317 16.5468 174.317 28.1579C174.317 38.3442 174.124 40.4884 173.175 40.8554C170.607 41.8496 172.327 42.6688 176.981 42.6688C179.772 42.6688 181.929 42.3341 181.929 41.9011C181.929 41.4788 181.28 41.1333 180.488 41.1333C179.695 41.1333 178.839 40.5867 178.585 39.9188C178.33 39.2509 178.123 33.5912 178.123 27.3411C178.123 16.4416 178.188 15.9603 179.722 15.5557C180.602 15.323 181.095 14.7657 180.819 14.3142C180.203 13.3101 172.293 13.2172 171.686 14.2075ZM187.257 14.335C187.257 14.7964 187.942 15.3553 188.779 15.5756C190.22 15.9557 190.302 16.6228 190.302 28.0781C190.302 39.7576 190.243 40.2205 188.589 41.3836C186.985 42.5114 187.391 42.5905 194.978 42.6289C203.748 42.6719 204.008 42.5444 204 38.1914L203.996 36.1431L202.276 38.3112C200.818 40.1483 200.091 40.4416 197.522 40.2305L194.489 39.9817L194.265 34.4157L194.041 28.8497H197.068C199.434 28.8497 200.201 29.1875 200.582 30.3966C201.332 32.7804 202.481 31.4024 202.481 28.118V25.1745L199.309 25.8931C194.605 26.9588 194.108 26.5104 194.108 21.1962V16.566H197.224C199.7 16.566 200.422 16.8815 200.738 18.1015C201.266 20.1375 202.194 20.0492 202.763 17.9095C203.93 13.5166 203.893 13.4951 195.25 13.4951C189.972 13.4951 187.257 13.7807 187.257 14.335ZM35.3962 16.5307C28.9914 19.2024 27.5344 30.8235 32.84 36.9177C37.4545 42.2189 44.5603 41.9663 47.9363 36.3811C49.8766 33.172 50.0456 25.2966 48.256 21.4925C46.0911 16.8923 40.0844 14.5745 35.3962 16.5307ZM65.4639 20.7885C65.4639 25.7588 65.4722 25.7788 67.6249 25.7788C69.2174 25.7788 70.0258 25.2498 70.6933 23.7711C72.1533 20.5398 69.8789 15.7983 66.8683 15.7983C65.6473 15.7983 65.4639 16.4501 65.4639 20.7885ZM90.1414 16.8339C89.9253 17.4036 89.8499 20.2542 89.9755 23.1677L90.2031 28.4658L92.5819 28.6992C95.9807 29.0324 97.4346 27.2374 97.4346 22.7086C97.4346 19.5955 97.1035 18.7179 95.4288 17.3898C93.1353 15.5703 90.7192 15.3161 90.1414 16.8339ZM118.476 24.6563C116.812 29.5805 116.823 29.6174 119.89 29.6174C121.356 29.6174 122.554 29.3579 122.554 29.0416C122.554 28.7253 121.917 26.776 121.139 24.7116L119.726 20.9566L118.476 24.6563ZM65.6222 34.0318L65.8445 39.9817L68.3899 40.2274C70.0524 40.3886 71.4637 39.991 72.4609 39.0804C75.8452 35.9919 72.1282 28.0819 67.2923 28.0819C65.4205 28.0819 65.4022 28.1457 65.6222 34.0318ZM19.745 51.3948C16.2023 53.212 16.5372 58.1654 20.2999 59.608C21.9783 60.2513 22.7418 60.1247 24.3168 58.9401C26.7283 57.1259 27.1104 55.4031 25.6124 53.0976C24.1805 50.8935 21.9715 50.2524 19.745 51.3948ZM0 55.3363V59.5588H3.42543C5.30942 59.5588 6.85087 59.2134 6.85087 58.7911C6.85087 58.3689 5.82324 58.0234 4.56725 58.0234C2.36812 58.0234 2.28362 57.8952 2.28362 54.5686C2.28362 52.0098 1.98751 51.1138 1.14181 51.1138C0.2649 51.1138 0 52.095 0 55.3363ZM37.2992 55.3363C37.2992 57.6587 37.6417 59.5588 38.0604 59.5588C38.479 59.5588 38.8216 58.5224 38.8216 57.2557C38.8216 55.9889 39.0994 54.9525 39.4397 54.9525C39.7799 54.9525 40.8175 55.9889 41.7461 57.2557C44.4226 60.9062 45.6725 60.2959 45.6725 55.3363C45.6725 52.095 45.4076 51.1138 44.5306 51.1138C43.7565 51.1138 43.3789 51.9169 43.3576 53.6089L43.3272 56.1041L41.2095 53.6089C38.1525 50.0075 37.2992 50.3845 37.2992 55.3363ZM56.3294 55.3363V59.5588H59.7281C62.3094 59.5588 63.3165 59.2018 63.9148 58.0741C65.9731 54.1947 63.9392 51.1138 59.3201 51.1138H56.3294V55.3363ZM75.6945 52.9955C74.1957 55.3026 74.8046 57.6211 77.3516 59.304C81.211 61.8544 85.9106 56.8641 83.3553 52.9295C81.6837 50.3568 77.3851 50.3937 75.6945 52.9955ZM94.3897 55.3363C94.3897 58.5777 94.6546 59.5588 95.5315 59.5588C96.308 59.5588 96.6802 58.7604 96.6939 57.0637L96.7145 54.5686L98.7872 57.0706C101.82 60.7312 102.763 60.3204 102.763 55.3363C102.763 52.095 102.498 51.1138 101.621 51.1138C100.845 51.1138 100.473 51.9123 100.459 53.6089L100.438 56.1041L98.3655 53.602C95.3329 49.9415 94.3897 50.3522 94.3897 55.3363ZM19.9817 53.1437C19.4588 53.364 19.0302 54.3736 19.0302 55.3855C19.0302 56.7228 19.5661 57.3624 20.9888 57.7224C23.379 58.3274 24.5725 57.2702 24.233 54.8488C23.9803 53.05 22.0446 52.2731 19.9817 53.1437ZM58.613 55.3363C58.613 57.671 58.8558 58.0234 60.465 58.0234C61.6624 58.0234 62.4913 57.4683 62.811 56.4511C63.4063 54.5609 62.0133 52.6493 60.0425 52.6493C58.916 52.6493 58.613 53.2197 58.613 55.3363ZM77.7672 53.3072C77.207 53.6742 76.8645 54.7989 77.006 55.807C77.2116 57.2741 77.7185 57.6395 79.5462 57.6395C81.5763 57.6395 81.8298 57.3839 81.8298 55.3363C81.8298 53.6105 81.4484 52.984 80.3074 52.8366C79.4701 52.7291 78.3267 52.941 77.7672 53.3072Z" fill="#E0AB23"/>
<path fill-rule="evenodd" clip-rule="evenodd" d="M5.70906 10.6975C2.58125 12.1385 0.976628 14.1523 0.419424 17.3337C-0.348634 21.7221 1.79417 24.8283 8.37328 28.8627C11.6214 30.8542 14.4957 33.2296 15.0415 34.3742C16.3873 37.1949 15.1815 39.9626 12.142 41.0312C8.33446 42.3702 4.72253 40.2819 2.76623 35.6103C1.91596 33.5812 0.945418 31.9206 0.610487 31.9206C0.274795 31.9206 0 34.362 0 37.3461C0 42.43 0.0966729 42.7417 1.5285 42.2826C2.36888 42.0139 4.88771 42.2066 7.12566 42.7118C14.3335 44.3386 19.6323 41.184 20.3341 34.8472C20.8076 30.5748 19.1231 28.3483 11.8695 23.6598C5.89023 19.7951 4.62738 18.4853 4.59161 16.1092C4.53071 12.0909 11.243 10.4119 14.2742 13.687C15.1534 14.6367 16.1072 16.3679 16.3941 17.5326C17.3578 21.4488 18.269 20.5344 18.269 15.6516C18.269 10.8948 18.2317 10.8065 16.1757 10.7435C15.024 10.7082 12.7122 10.4464 11.0375 10.1624C9.05989 9.82687 7.19189 10.0142 5.70906 10.6975ZM32.6611 15.2509C30.0875 16.5982 28.8193 17.9709 27.2132 21.147C24.9448 25.6329 24.6243 28.9234 26.0044 33.5697C28.8018 42.9851 41.8207 46.4698 48.9776 39.7192C54.2231 34.7712 55.6922 26.105 52.317 20.0208C48.8969 13.8536 39.6277 11.6049 32.6611 15.2509ZM58.613 14.1369C58.613 14.5983 59.2981 15.3461 60.1354 15.7983C61.5535 16.5637 61.6578 17.4059 61.6578 28.0789C61.6578 38.8785 61.5619 39.6278 59.9915 41.1034L58.326 42.6688H65.3961C72.4228 42.6688 72.483 42.6527 75.0551 40.0585C77.1826 37.9127 77.6432 36.8709 77.6432 34.1992C77.6432 31.4799 77.2085 30.5364 74.9751 28.4121C73.5075 27.0163 72.6382 25.6674 73.044 25.4148C73.4489 25.1623 74.1211 23.7128 74.5367 22.1935C75.3558 19.2032 74.1508 15.6109 72.0582 14.801C69.5964 13.8482 58.613 13.3055 58.613 14.1369ZM82.9716 14.2214C82.9716 14.7457 83.6567 15.3553 84.494 15.5756C85.9358 15.9564 86.0165 16.6228 86.0165 28.1956C86.0165 38.348 85.8231 40.4884 84.8746 40.8554C82.3071 41.8496 84.0267 42.6688 88.6807 42.6688C93.3705 42.6688 95.5886 41.521 91.9158 40.9952C90.3774 40.7748 90.1803 40.2612 89.9763 35.9512L89.7502 31.1529H91.9805C93.8501 31.1529 94.8099 31.9751 97.9088 36.2322C99.942 39.0259 102.402 41.617 103.376 41.9901C105.818 42.9268 115.704 42.8546 115.704 41.9011C115.704 41.4788 115.19 41.1333 114.562 41.1333C113.137 41.1333 113.14 41.0128 114.701 36.0187L115.981 31.9206H119.872H123.762L125.248 36.3297C126.064 38.7541 126.634 41.1725 126.513 41.7038C126.357 42.3893 127.515 42.6688 130.514 42.6688C132.835 42.6688 134.734 42.3233 134.734 41.9011C134.734 41.4788 134.262 41.1333 133.685 41.1333C131.821 41.1333 130.629 38.857 125.917 26.3016C123.37 19.5164 120.932 13.8452 120.498 13.6993C120.065 13.5542 117.715 19.022 115.274 25.8502C112.834 32.6783 110.277 38.9622 109.593 39.8144C108.363 41.346 108.314 41.3314 105.288 38.5753C103.605 37.0413 101.31 34.4503 100.188 32.8181L98.1486 29.85L100.185 25.8924C102.561 21.2745 102.164 18.0976 98.906 15.644C96.4869 13.8221 82.9716 12.6153 82.9716 14.2214ZM138.54 27.0025C138.54 39.8635 138.467 40.5284 137.017 40.9107C133.867 41.7422 135.673 42.6688 140.443 42.6688C145.731 42.6688 146.503 42.2895 143.533 41.151C141.725 40.4577 141.669 40.1913 141.44 31.1874C141.31 26.0997 141.375 21.9393 141.585 21.9416C141.794 21.9439 146.175 26.6087 151.321 32.3075C156.467 38.0064 161.177 42.6688 161.788 42.6688C162.719 42.6688 162.898 40.4969 162.898 29.2335C162.898 17.8028 163.069 15.7983 164.04 15.7983C164.668 15.7983 165.182 15.2801 165.182 14.6467C165.182 13.7638 164.215 13.4951 161.04 13.4951C156.598 13.4951 154.744 14.6712 157.919 15.4751L159.854 15.9649V25.6528V35.3408L158.059 33.4384C157.071 32.3927 152.589 27.4777 148.098 22.5159C143.606 17.5541 139.618 13.4951 139.236 13.4951C138.842 13.4951 138.54 19.3521 138.54 27.0025ZM171.686 14.2075C171.446 14.5991 171.939 15.1411 172.783 15.4106C174.236 15.8758 174.317 16.5468 174.317 28.1579C174.317 38.3442 174.124 40.4884 173.175 40.8554C170.607 41.8496 172.327 42.6688 176.981 42.6688C179.772 42.6688 181.929 42.3341 181.929 41.9011C181.929 41.4788 181.28 41.1333 180.488 41.1333C179.695 41.1333 178.839 40.5867 178.585 39.9188C178.33 39.2509 178.123 33.5912 178.123 27.3411C178.123 16.4416 178.188 15.9603 179.722 15.5557C180.602 15.323 181.095 14.7657 180.819 14.3142C180.203 13.3101 172.293 13.2172 171.686 14.2075ZM187.257 14.335C187.257 14.7964 187.942 15.3553 188.779 15.5756C190.22 15.9557 190.302 16.6228 190.302 28.0781C190.302 39.7576 190.243 40.2205 188.589 41.3836C186.985 42.5114 187.391 42.5905 194.978 42.6289C203.748 42.6719 204.008 42.5444 204 38.1914L203.996 36.1431L202.276 38.3112C200.818 40.1483 200.091 40.4416 197.522 40.2305L194.489 39.9817L194.265 34.4157L194.041 28.8497H197.068C199.434 28.8497 200.201 29.1875 200.582 30.3966C201.332 32.7804 202.481 31.4024 202.481 28.118V25.1745L199.309 25.8931C194.605 26.9588 194.108 26.5104 194.108 21.1962V16.566H197.224C199.7 16.566 200.422 16.8815 200.738 18.1015C201.266 20.1375 202.194 20.0492 202.763 17.9095C203.93 13.5166 203.893 13.4951 195.25 13.4951C189.972 13.4951 187.257 13.7807 187.257 14.335ZM35.3962 16.5307C28.9914 19.2024 27.5344 30.8235 32.84 36.9177C37.4545 42.2189 44.5603 41.9663 47.9363 36.3811C49.8766 33.172 50.0456 25.2966 48.256 21.4925C46.0911 16.8923 40.0844 14.5745 35.3962 16.5307ZM65.4639 20.7885C65.4639 25.7588 65.4722 25.7788 67.6249 25.7788C69.2174 25.7788 70.0258 25.2498 70.6933 23.7711C72.1533 20.5398 69.8789 15.7983 66.8683 15.7983C65.6473 15.7983 65.4639 16.4501 65.4639 20.7885ZM90.1414 16.8339C89.9253 17.4036 89.8499 20.2542 89.9755 23.1677L90.2031 28.4658L92.5819 28.6992C95.9807 29.0324 97.4346 27.2374 97.4346 22.7086C97.4346 19.5955 97.1035 18.7179 95.4288 17.3898C93.1353 15.5703 90.7192 15.3161 90.1414 16.8339ZM118.476 24.6563C116.812 29.5805 116.823 29.6174 119.89 29.6174C121.356 29.6174 122.554 29.3579 122.554 29.0416C122.554 28.7253 121.917 26.776 121.139 24.7116L119.726 20.9566L118.476 24.6563ZM65.6222 34.0318L65.8445 39.9817L68.3899 40.2274C70.0524 40.3886 71.4637 39.991 72.4609 39.0804C75.8452 35.9919 72.1282 28.0819 67.2923 28.0819C65.4205 28.0819 65.4022 28.1457 65.6222 34.0318ZM19.745 51.3948C16.2023 53.212 16.5372 58.1654 20.2999 59.608C21.9783 60.2513 22.7418 60.1247 24.3168 58.9401C26.7283 57.1259 27.1104 55.4031 25.6124 53.0976C24.1805 50.8935 21.9715 50.2524 19.745 51.3948ZM0 55.3363V59.5588H3.42543C5.30942 59.5588 6.85087 59.2134 6.85087 58.7911C6.85087 58.3689 5.82324 58.0234 4.56725 58.0234C2.36812 58.0234 2.28362 57.8952 2.28362 54.5686C2.28362 52.0098 1.98751 51.1138 1.14181 51.1138C0.2649 51.1138 0 52.095 0 55.3363ZM37.2992 55.3363C37.2992 57.6587 37.6417 59.5588 38.0604 59.5588C38.479 59.5588 38.8216 58.5224 38.8216 57.2557C38.8216 55.9889 39.0994 54.9525 39.4397 54.9525C39.7799 54.9525 40.8175 55.9889 41.7461 57.2557C44.4226 60.9062 45.6725 60.2959 45.6725 55.3363C45.6725 52.095 45.4076 51.1138 44.5306 51.1138C43.7565 51.1138 43.3789 51.9169 43.3576 53.6089L43.3272 56.1041L41.2095 53.6089C38.1525 50.0075 37.2992 50.3845 37.2992 55.3363ZM56.3294 55.3363V59.5588H59.7281C62.3094 59.5588 63.3165 59.2018 63.9148 58.0741C65.9731 54.1947 63.9392 51.1138 59.3201 51.1138H56.3294V55.3363ZM75.6945 52.9955C74.1957 55.3026 74.8046 57.6211 77.3516 59.304C81.211 61.8544 85.9106 56.8641 83.3553 52.9295C81.6837 50.3568 77.3851 50.3937 75.6945 52.9955ZM94.3897 55.3363C94.3897 58.5777 94.6546 59.5588 95.5315 59.5588C96.308 59.5588 96.6802 58.7604 96.6939 57.0637L96.7145 54.5686L98.7872 57.0706C101.82 60.7312 102.763 60.3204 102.763 55.3363C102.763 52.095 102.498 51.1138 101.621 51.1138C100.845 51.1138 100.473 51.9123 100.459 53.6089L100.438 56.1041L98.3655 53.602C95.3329 49.9415 94.3897 50.3522 94.3897 55.3363ZM19.9817 53.1437C19.4588 53.364 19.0302 54.3736 19.0302 55.3855C19.0302 56.7228 19.5661 57.3624 20.9888 57.7224C23.379 58.3274 24.5725 57.2702 24.233 54.8488C23.9803 53.05 22.0446 52.2731 19.9817 53.1437ZM58.613 55.3363C58.613 57.671 58.8558 58.0234 60.465 58.0234C61.6624 58.0234 62.4913 57.4683 62.811 56.4511C63.4063 54.5609 62.0133 52.6493 60.0425 52.6493C58.916 52.6493 58.613 53.2197 58.613 55.3363ZM77.7672 53.3072C77.207 53.6742 76.8645 54.7989 77.006 55.807C77.2116 57.2741 77.7185 57.6395 79.5462 57.6395C81.5763 57.6395 81.8298 57.3839 81.8298 55.3363C81.8298 53.6105 81.4484 52.984 80.3074 52.8366C79.4701 52.7291 78.3267 52.941 77.7672 53.3072Z" fill="url(#paint0_linear_601_1657)"/>
<defs>
<linearGradient id="paint0_linear_601_1657" x1="1.13994e-06" y1="35" x2="204" y2="35" gradientUnits="userSpaceOnUse">
<stop stop-color="#CCB78A"/>
<stop offset="0.46875" stop-color="#EFE3C8"/>
<stop offset="1" stop-color="#D0BA89"/>
</linearGradient>
</defs>
</svg>
