<svg width="153" height="70" viewBox="0 0 153 70" fill="none" xmlns="http://www.w3.org/2000/svg">
<path fill-rule="evenodd" clip-rule="evenodd" d="M52.0307 0.669828C48.2255 1.11457 33.944 4.5144 33.3371 5.11966C33.2288 5.22767 33.7721 6.2994 34.5442 7.50147C35.9189 9.63888 36.3581 9.7644 38.8715 8.73552C39.7494 8.37586 39.4753 9.28103 37.5543 13.093C35.4245 17.3172 30.8062 29.4259 30.8062 30.7855C30.8062 31.0589 31.6914 31.0498 32.7726 30.7656C33.8538 30.482 35.8602 29.96 37.23 29.6058C39.649 28.9806 39.77 28.8267 41.4085 24.287C43.2012 19.3182 47.0269 11.3587 48.5862 9.35345C49.4943 8.18457 49.5252 8.20388 49.5518 9.9569C49.6165 14.216 49.9082 14.4828 54.4926 14.4828H58.6765L58.5065 7.39948C58.3117 -0.680086 58.8441 -0.127327 52.0307 0.669828ZM64.6889 13.0411V26.0828L66.8713 25.6743C72.1316 24.6901 71.9465 25.0027 71.9773 17.0625L72.0058 9.9569L76.3954 14.6795L80.7856 19.4021L85.4173 14.3778L90.0489 9.35345L90.0749 16.7028L90.1009 24.0522L93.3706 25.0003C95.1688 25.5216 96.8025 25.9483 97.0009 25.9483C97.1994 25.9483 97.3615 20.1099 97.3615 12.9741V0H92.0129H86.6649L83.8121 3.66353L80.9593 7.32767L78.1186 3.69069L75.2773 0.0543081L69.9831 0.0271541L64.6889 0V13.0411ZM108.555 2.9394C107.224 3.54586 105.009 5.26509 103.632 6.76043C97.246 13.6977 99.8132 24.4209 108.857 28.5866C112.303 30.1736 121.237 30.3088 124.672 28.8267C126.849 27.8872 126.87 27.8437 126.558 24.9514C126.384 23.342 126.168 21.9384 126.078 21.8316C125.988 21.7247 124.653 22.0645 123.112 22.5859C119.461 23.8223 116.313 23.7861 113.741 22.4772C111.622 21.4001 108.965 18.3979 109.584 17.7812C109.773 17.5929 112.114 17.9954 114.788 18.6761C120.822 20.2131 120.879 20.2119 121.49 18.556C123.155 14.0489 123.248 14.1853 117.468 12.6815C111.185 11.0461 110.814 10.8669 112.152 10.1204C115.79 8.08983 120.939 8.71983 124.817 11.6701C125.979 12.5535 127.15 13.2753 127.422 13.2747C127.979 13.2734 131.515 7.90155 131.166 7.58715C131.043 7.47552 129.242 6.53474 127.164 5.49621C119.86 1.84414 113.021 0.90457 108.555 2.9394ZM137.591 8.59914C132.909 21.6119 130.054 31.0184 130.669 31.398C131.066 31.6424 135.336 33.2772 140.157 35.0302L148.924 38.2182L150.952 35.8545C152.068 34.5547 152.989 33.3556 153 33.1897C153.01 33.0237 150.203 31.856 146.761 30.5954L140.503 28.3029L143.437 20.1419C145.05 15.6541 146.37 11.6592 146.37 11.2658C146.37 10.8717 144.669 9.94121 142.589 9.19715C138.193 7.62457 137.951 7.5956 137.591 8.59914ZM12.2959 9.29733C8.91432 10.1156 5.78864 11.8348 3.7575 13.9928C0.0382633 17.9435 -1.12282 25.1698 1.19391 29.9437C6.01312 39.8722 18.865 40.4932 27.6823 31.2242L29.7008 29.1019L28.6304 25.7147C28.0417 23.8519 27.4052 22.3312 27.2164 22.3348C27.0277 22.3391 26.2611 23.2859 25.512 24.4384C23.8294 27.0297 20.1743 29.505 17.3572 29.9612C14.7718 30.3794 11.3309 28.8985 9.92899 26.7641C8.62027 24.7722 8.63237 21.0712 9.95441 19.0593C12.0116 15.928 18.6471 13.7134 22.2351 14.9607C23.925 15.5484 24.0405 15.4833 24.3884 13.7502C24.5905 12.7424 24.7557 11.1372 24.7557 10.1832V8.44828L20.0666 8.49957C17.4873 8.52793 13.9907 8.88638 12.2959 9.29733ZM46.8158 18.1789C46.4177 19.4304 47.2629 20.4871 48.6781 20.5082C49.0236 20.513 50.1865 21.2637 51.2623 22.1767C52.7816 23.4657 53.4955 24.8464 54.4594 28.3603C56.7101 36.5653 60.4953 41.4871 66.1047 43.4996C68.9146 44.5079 69.1632 44.934 70.3836 50.8272C72.2635 59.9031 71.3378 66.5706 67.9876 68.0931C65.6189 69.1697 66.262 70 69.4634 70C72.4027 70 72.4251 69.9849 72.851 67.7371C73.0876 66.4928 73.4573 61.6724 73.6739 57.0259L74.0672 48.5776L75.4939 52.8017C76.4601 55.6621 76.9327 58.4735 76.9563 61.5089C76.9902 65.8247 76.92 66.0516 75.0722 67.5904C72.7881 69.4919 73.0955 70 76.5285 70H79.0915L79.4775 66.5302C79.7068 64.4688 79.4896 60.4878 78.9426 56.7241C78.4362 53.2392 78.0169 49.4043 78.0109 48.2022C78.0006 46.1053 78.1016 46.0003 80.4958 45.6183C81.868 45.3992 84.1672 44.686 85.6054 44.0324C87.043 43.3795 88.4667 42.8448 88.7692 42.8448C89.0724 42.8448 89.8898 44.8133 90.5862 47.2198C93.5189 57.3463 92.7747 64.5768 88.4371 68.1106L86.1681 69.9596L88.9713 69.9795C91.3915 69.997 91.8175 69.8141 92.0867 68.6422C92.2579 67.8952 92.6803 66.4698 93.0251 65.4741C94.62 60.8668 95.625 54.2446 95.2203 51.0137C94.9873 49.1539 95.0406 47.6724 95.3395 47.6724C96.2724 47.6724 99.6413 55.0641 100.388 58.7469C101.331 63.4007 100.765 66.1029 98.3962 68.2609L96.4866 70H99.6099H102.733L103.117 67.4353C103.867 62.4328 103.092 53.034 101.413 46.7672C100.524 43.4483 99.8017 40.4612 99.8083 40.1293C99.8362 38.7197 101.544 41.9505 101.908 44.1042C102.127 45.3992 102.597 46.6381 102.952 46.8565C103.858 47.4147 103.098 43.0627 101.586 39.0316C100.081 35.0205 96.7994 31.1289 93.5152 29.4622C92.1363 28.7622 89.9612 27.2976 88.6815 26.2072C84.0922 22.2974 80.2931 22.9528 72.6707 28.9697C68.0131 32.6472 65.2801 33.0201 62.7582 30.3233C60.7743 28.2016 60.1777 26.9699 59.2749 23.132C58.7564 20.9258 58.7268 19.67 59.1739 18.836C59.7487 17.7655 59.552 17.6237 57.0199 17.2773C55.4879 17.0679 52.6569 16.8966 50.7292 16.8966C47.687 16.8966 47.1703 17.0661 46.8158 18.1789Z" fill="#00A6E3"/>
</svg>
