<svg width="80" height="60" viewBox="0 0 80 60" fill="none" xmlns="http://www.w3.org/2000/svg">
<path d="M5.93039 59.9962C5.59996 59.8381 5.23155 59.8705 4.88403 59.7867C3.4009 59.4248 2.01651 58.882 1.00623 57.6649C-0.0610146 56.3774 -0.252816 54.8937 0.303597 53.3795C0.846717 51.9015 2.09817 51.1206 3.587 50.8844C5.88671 50.5206 7.61292 51.5529 8.45609 53.6575C8.74474 54.3756 9.02579 55.1013 9.5955 55.6593C10.3817 56.4212 11.3312 56.3279 11.9009 55.3946C12.2843 54.7516 12.4815 54.0143 12.4706 53.2652C12.4769 40.9803 12.4769 28.696 12.4706 16.4123C12.4731 16.2215 12.4377 16.0322 12.3664 15.8554C12.2951 15.6785 12.1893 15.5177 12.0552 15.3824C11.9212 15.2471 11.7616 15.1399 11.5857 15.0672C11.4099 14.9945 11.2213 14.9578 11.0312 14.959C10.3513 14.9457 9.66956 14.959 8.98971 14.959C8.4723 14.9533 7.9725 14.7698 7.57369 14.4391C7.17488 14.1084 6.90118 13.6506 6.79824 13.142C6.7025 12.6147 6.80163 12.0706 7.07707 11.6113C7.35251 11.152 7.78539 10.8092 8.29467 10.6469C8.67391 10.534 9.06923 10.4851 9.46447 10.5022H28.5952C29.6643 10.5022 30.1695 10.1479 30.5531 9.13275C30.9367 8.11758 31.9678 7.46047 33.1851 7.45667C34.8145 7.45667 36.4457 7.45667 38.0751 7.45667H63.3321C64.0423 7.45667 64.0423 7.45666 64.0442 8.1671C64.0442 9.27814 64.0442 10.3892 64.0442 11.5002C64.0442 12.0983 64.0442 12.1002 63.4251 12.1002H55.5442C54.2149 12.1002 53.5027 12.8239 53.5027 14.1591C53.5027 23.4601 53.5027 32.7605 53.5027 42.0602C53.5027 43.2715 53.066 44.201 52.0025 44.8791C49.0078 46.7837 46.0472 48.7436 43.0771 50.6787C42.8809 50.8112 42.6715 50.9229 42.4523 51.012C41.2351 51.4805 40.1165 50.7587 40.0235 49.4521C40.0102 49.2788 40.0235 49.1035 40.0235 48.9283C40.0235 37.5487 40.0235 26.1691 40.0235 14.7895C40.0225 14.5048 40.0028 14.2203 39.9646 13.9382C39.8013 12.7059 39.1404 12.1116 37.9023 12.1021C36.4154 12.0907 34.9265 12.1021 33.4396 12.1021C32.4255 12.1021 31.9811 12.4278 31.6317 13.3763C31.4634 13.8418 31.1553 14.2436 30.7499 14.5264C30.3446 14.8091 29.8618 14.9589 29.3681 14.9552C28.9085 14.9667 28.4509 14.9552 27.9913 14.9552C27.8009 14.9491 27.6112 14.9815 27.4337 15.0507C27.2561 15.1198 27.0943 15.2242 26.9579 15.3576C26.8215 15.491 26.7134 15.6507 26.64 15.827C26.5667 16.0033 26.5296 16.1927 26.531 16.3837C26.531 16.5266 26.531 16.6694 26.531 16.8123C26.531 26.0498 26.531 35.2866 26.531 44.5229C26.5605 46.1039 26.0957 47.6544 25.2016 48.9569C24.5275 49.9225 23.597 50.612 22.6399 51.2596C19.5027 53.3795 16.3389 55.4631 13.2169 57.6059C11.6445 58.6858 9.9886 59.5315 8.10477 59.861C7.80093 59.9143 7.47619 59.8172 7.19134 59.9943L5.93039 59.9962Z" fill="#26A577"/>
<path d="M65.9392 24.5146C65.9392 19.0394 65.936 13.5636 65.9297 8.08711C65.9297 7.63571 66.0379 7.50239 66.4994 7.50429C70.6608 7.52207 74.8228 7.52207 78.9854 7.50429C79.4165 7.50429 79.502 7.62809 79.502 8.03569C79.4906 16.717 79.4868 25.399 79.4906 34.0817C79.4906 35.2797 79.0652 36.2282 77.9942 36.91C74.9728 38.8337 71.9857 40.8107 68.9833 42.763C68.6841 42.9723 68.3375 43.1033 67.9749 43.1439C66.8108 43.2411 66.131 42.6278 65.962 41.3193C65.9422 41.1295 65.9346 40.9387 65.9392 40.7479C65.9392 35.3387 65.9392 29.9276 65.9392 24.5146Z" fill="#26A577"/>
<path d="M72.6905 4.24089e-06C74.3971 4.24089e-06 76.1062 4.24089e-06 77.8179 4.24089e-06C78.3688 -0.0129733 78.9034 0.188049 79.31 0.561078C79.7166 0.934106 79.9637 1.45028 79.9998 2.00178C80.0872 3.27789 79.3333 4.22831 78.1008 4.39592C77.8674 4.42998 77.6321 4.44843 77.3963 4.45115C74.2312 4.45115 71.07 4.45115 67.9126 4.45115C67.096 4.45115 66.344 4.28354 65.8426 3.54073C65.3413 2.79792 65.252 2.00559 65.6527 1.20374C65.8171 0.835149 66.0871 0.523905 66.4282 0.309566C66.7694 0.0952277 67.1665 -0.0125252 67.5689 4.24089e-06H72.6905Z" fill="#26A577"/>
</svg>
