<svg width="107" height="39" viewBox="0 0 107 39" fill="none" xmlns="http://www.w3.org/2000/svg">
<path d="M79.5641 39L7.62939e-06 39L4.21991e-06 9.35424e-06L79.5641 2.39852e-06L107 19.5L79.5641 39Z" fill="#011689"/>
<path d="M22.9414 26L25.4287 13.2031L26.6943 13.2031L24.1982 26L22.9414 26ZM26.5186 26L29.0146 13.2031L30.2715 13.2031L27.7754 26L26.5186 26ZM31.3437 18.0811L22.2031 18.0811L22.2031 16.8594L31.3437 16.8594L31.3437 18.0811ZM30.6846 22.3965L21.5352 22.3965L21.5352 21.1836L30.6846 21.1836L30.6846 22.3965ZM42.9102 13.2031L42.9102 26L41.2051 26L34.7627 16.1299L34.7627 26L33.0664 26L33.0664 13.2031L34.7627 13.2031L41.2314 23.0996L41.2314 13.2031L42.9102 13.2031ZM49.6162 26.1758C48.9541 26.1758 48.3535 26.0645 47.8145 25.8418C47.2812 25.6133 46.8213 25.294 46.4346 24.8838C46.0537 24.4736 45.7607 23.9873 45.5557 23.4248C45.3506 22.8623 45.248 22.2471 45.248 21.5791L45.248 21.21C45.248 20.4365 45.3623 19.7481 45.5908 19.1445C45.8193 18.5352 46.1299 18.0195 46.5225 17.5977C46.915 17.1758 47.3604 16.8565 47.8584 16.6397C48.3564 16.4229 48.8721 16.3145 49.4053 16.3145C50.085 16.3145 50.6709 16.4316 51.1631 16.666C51.6611 16.9004 52.0684 17.2285 52.3848 17.6504C52.7012 18.0664 52.9355 18.5586 53.0879 19.127C53.2402 19.6895 53.3164 20.3047 53.3164 20.9727L53.3164 21.7022L46.2148 21.7022L46.2148 20.375L51.6904 20.375L51.6904 20.252C51.667 19.8301 51.5791 19.4199 51.4268 19.0215C51.2803 18.6231 51.0459 18.2949 50.7236 18.0371C50.4014 17.7793 49.9619 17.6504 49.4053 17.6504C49.0361 17.6504 48.6963 17.7295 48.3857 17.8877C48.0752 18.04 47.8086 18.2686 47.5859 18.5732C47.3633 18.8779 47.1904 19.25 47.0674 19.6895C46.9443 20.1289 46.8828 20.6357 46.8828 21.21L46.8828 21.5791C46.8828 22.0303 46.9443 22.4551 47.0674 22.8535C47.1963 23.2461 47.3809 23.5918 47.6211 23.8906C47.8672 24.1895 48.1631 24.4238 48.5088 24.5938C48.8603 24.7637 49.2588 24.8486 49.7041 24.8486C50.2783 24.8486 50.7646 24.7315 51.1631 24.4971C51.5615 24.2627 51.9102 23.9492 52.209 23.5566L53.1934 24.3389C52.9883 24.6494 52.7275 24.9453 52.4111 25.2266C52.0947 25.5078 51.7051 25.7363 51.2422 25.9121C50.7852 26.0879 50.2432 26.1758 49.6162 26.1758ZM57.623 24.3125L60.0664 16.4902L61.1387 16.4902L60.9277 18.0459L58.4404 26L57.3945 26L57.623 24.3125ZM55.9795 16.4902L58.0625 24.4004L58.2119 26L57.1133 26L54.3535 16.4902L55.9795 16.4902ZM63.4766 24.3389L65.4629 16.4902L67.0801 16.4902L64.3203 26L63.2305 26L63.4766 24.3389ZM61.376 16.4902L63.7666 24.1807L64.0391 26L63.0019 26L60.4443 18.0283L60.2334 16.4902L61.376 16.4902Z" fill="white"/>
</svg>
