<svg width="29" height="78" viewBox="0 0 29 78" fill="none" xmlns="http://www.w3.org/2000/svg">
<path d="M-8.74228e-07 58L-3.40949e-06 0L29 -1.26763e-06L29 58L14.5 78L-8.74228e-07 58Z" fill="#011689"/>
<path d="M20 52.7187L8.625 50.5078L8.625 49.3828L20 51.6016L20 52.7187ZM20 49.5391L8.625 47.3203L8.625 46.2031L20 48.4219L20 49.5391ZM12.9609 45.25L12.9609 53.375L11.875 53.375L11.875 45.25L12.9609 45.25ZM16.7969 45.8359L16.7969 53.9687L15.7187 53.9687L15.7187 45.8359L16.7969 45.8359ZM8.625 34.9687L20 34.9687L20 36.4844L11.2266 42.2109L20 42.2109L20 43.7187L8.625 43.7187L8.625 42.2109L17.4219 36.4609L8.625 36.4609L8.625 34.9687ZM20.1562 29.0078C20.1562 29.5964 20.0573 30.1302 19.8594 30.6094C19.6562 31.0833 19.3724 31.4922 19.0078 31.8359C18.6432 32.1745 18.2109 32.4349 17.7109 32.6172C17.2109 32.7995 16.6641 32.8906 16.0703 32.8906L15.7422 32.8906C15.0547 32.8906 14.4427 32.7891 13.9062 32.5859C13.3646 32.3828 12.9062 32.1068 12.5312 31.7578C12.1562 31.4089 11.8724 31.013 11.6797 30.5703C11.487 30.1276 11.3906 29.6693 11.3906 29.1953C11.3906 28.5911 11.4948 28.0703 11.7031 27.6328C11.9115 27.1901 12.2031 26.8281 12.5781 26.5469C12.9479 26.2656 13.3854 26.0573 13.8906 25.9219C14.3906 25.7865 14.9375 25.7187 15.5312 25.7187L16.1797 25.7187L16.1797 32.0312L15 32.0312L15 27.1641L14.8906 27.1641C14.5156 27.1849 14.151 27.263 13.7969 27.3984C13.4427 27.5286 13.151 27.737 12.9219 28.0234C12.6927 28.3099 12.5781 28.7005 12.5781 29.1953C12.5781 29.5234 12.6484 29.8255 12.7891 30.1016C12.9245 30.3776 13.1276 30.6146 13.3984 30.8125C13.6693 31.0104 14 31.1641 14.3906 31.2734C14.7812 31.3828 15.2318 31.4375 15.7422 31.4375L16.0703 31.4375C16.4714 31.4375 16.849 31.3828 17.2031 31.2734C17.5521 31.1589 17.8594 30.9948 18.125 30.7812C18.3906 30.5625 18.599 30.2995 18.75 29.9922C18.901 29.6797 18.9766 29.3255 18.9766 28.9297C18.9766 28.4193 18.8724 27.987 18.6641 27.6328C18.4557 27.2786 18.1771 26.9687 17.8281 26.7031L18.5234 25.8281C18.7995 26.0104 19.0625 26.2422 19.3125 26.5234C19.5625 26.8047 19.7656 27.151 19.9219 27.5625C20.0781 27.9687 20.1562 28.4505 20.1562 29.0078ZM18.5 21.8906L11.5469 19.7187L11.5469 18.7656L12.9297 18.9531L20 21.1641L20 22.0937L18.5 21.8906ZM11.5469 23.3516L18.5781 21.5L20 21.3672L20 22.3437L11.5469 24.7969L11.5469 23.3516ZM18.5234 16.6875L11.5469 14.9219L11.5469 13.4844L20 15.9375L20 16.9062L18.5234 16.6875ZM11.5469 18.5547L18.3828 16.4297L20 16.1875L20 17.1094L12.9141 19.3828L11.5469 19.5703L11.5469 18.5547Z" fill="white"/>
</svg>
