<svg width="223" height="70" viewBox="0 0 223 70" fill="none" xmlns="http://www.w3.org/2000/svg">
<path fill-rule="evenodd" clip-rule="evenodd" d="M0 25.7993C0 26.3415 0.586299 27.009 1.30289 27.2823C2.33999 27.6792 2.60578 29.5349 2.60578 36.3898V45L5.4287 44.7285C8.08485 44.4734 8.26725 44.2382 8.52088 40.7316C8.7832 37.1127 8.87006 37.0132 11.5505 37.2727C13.7802 37.4888 14.7001 38.2464 16.34 41.215C18.1162 44.4301 18.7434 44.8902 21.3457 44.8902C22.9821 44.8902 24.3206 44.5235 24.3206 44.0747C24.3206 42.4974 20.7489 37.2554 19.2862 36.6855C18.038 36.1995 18.1796 35.9124 20.1948 34.8514C22.0727 33.8621 22.5834 32.9749 22.5834 30.7006C22.5834 29.0663 21.9597 27.2918 21.1493 26.6225C19.2697 25.0694 0 24.3197 0 25.7993ZM33.0065 34.9456V44.8902H35.6123H38.218V34.9456V25.0011H35.6123H33.0065V34.9456ZM52.5498 25.7725C49.3725 27.1517 47.5294 30.0702 47.1133 34.381C46.752 38.1175 46.996 38.9122 49.2821 41.4598C51.5535 43.9909 52.4829 44.3739 57.1664 44.7112C64.5086 45.2395 66.8816 44.5365 66.8816 41.8307C66.8816 39.9006 66.6253 39.7346 64.4929 40.2785C57.532 42.0556 52.9841 39.9188 52.9841 34.873C52.9841 29.9751 57.6641 27.5166 63.785 29.1986C67.0353 30.0927 67.7102 29.3732 66.059 26.7756C65.1305 25.3141 55.2893 24.5834 52.5498 25.7725ZM75.5675 34.9456V44.8902H78.6076C81.6311 44.8902 81.6476 44.8694 81.6476 40.9988V37.1075H85.9906H90.3336V40.9988C90.3336 44.7458 90.43 44.8902 92.9393 44.8902H95.5451V34.9456V25.0011H92.9393C90.43 25.0011 90.3336 25.1455 90.3336 28.8924V32.7838H85.9906H81.6476V28.8924C81.6476 25.0219 81.6311 25.0011 78.6076 25.0011H75.5675V34.9456ZM105.679 25.5779C105.36 25.8944 105.1 30.3694 105.1 35.5224V44.8902H107.669H110.238L110.492 38.1884L110.745 31.4867L114.205 38.2126C116.496 42.6643 118.111 44.8582 118.982 44.6982C119.707 44.5659 121.863 41.5393 123.774 37.9722L127.249 31.4867L127.503 38.242L127.758 44.9983L130.109 44.7276L132.46 44.4578V34.9456V25.4335H129.42C126.589 25.4335 126.141 25.8347 122.906 31.2696C120.995 34.4795 119.211 37.1066 118.941 37.1066C118.672 37.1075 116.913 34.3844 115.033 31.056C111.956 25.6107 111.347 25.0054 108.936 25.0028C107.463 25.002 105.997 25.2605 105.679 25.5779ZM146.26 25.8486C141.306 27.8418 139.186 35.1203 141.989 40.5154C145.045 46.4009 159.304 46.3758 162.474 40.48C163.737 38.1279 163.712 31.7158 162.429 29.3291C160.5 25.7405 151.399 23.7818 146.26 25.8486ZM171.981 34.9456V44.8902H174.547C177.104 44.8902 177.115 44.8694 177.37 39.1941L177.627 33.4972L181.822 39.1941C185.574 44.2883 186.331 44.8902 188.988 44.8902H191.959V34.9456V25.0011H189.353H186.747V31.2195V37.437L182.187 31.2489C178.173 25.8019 177.288 25.0564 174.804 25.0305L171.981 25.0011V34.9456ZM199.559 26.6822C201.336 28.1583 201.513 29.055 201.513 36.5973V44.8902H208.056C211.654 44.8902 215.886 44.354 217.461 43.6994C221.05 42.2069 223.617 37.2804 222.87 33.3182C221.63 26.7366 217.964 24.9959 205.422 25.0348C197.659 25.0582 197.619 25.0703 199.559 26.6822ZM8.68592 31.0543C8.68592 33.5551 8.8275 33.6485 12.6215 33.6485C15.3341 33.6485 16.7143 33.2421 17.0618 32.3402C17.8939 30.1826 15.6703 28.4601 12.0543 28.4601C8.8909 28.4601 8.68592 28.6175 8.68592 31.0543ZM149.488 30.4187C143.08 33.7082 147.846 42.4914 154.542 39.7294C158.877 37.942 159.117 32.1949 154.936 30.2977C152.282 29.0939 152.058 29.0991 149.488 30.4187ZM207.593 34.9456V39.7017H211.328C215.802 39.7017 217.148 38.5689 217.148 34.803C217.148 31.4962 215.319 30.1896 210.691 30.1896H207.593V34.9456Z" fill="#020202"/>
</svg>
