<svg width="134" height="70" viewBox="0 0 134 70" fill="none" xmlns="http://www.w3.org/2000/svg">
<path fill-rule="evenodd" clip-rule="evenodd" d="M81.5343 2.47682C81.0398 6.09659 82.3326 10.1415 85.6437 15.3371C86.1305 16.1005 85.8078 15.8938 84.8444 14.8255C83.9566 13.8406 82.6176 11.9987 81.8691 10.7325L80.5083 8.43013L80.3523 10.318C80.1719 12.5063 81.2212 14.8572 83.4871 17.3406L85.0817 19.0879L83.3438 17.883L81.6054 16.6781L82.8356 18.8883C85.1229 22.9987 89.5093 25.9027 95.785 27.4622C97.6865 27.9344 99.029 28.3811 98.7679 28.4542C91.8036 30.4092 91.7645 30.4342 93.2945 31.9748C93.8459 32.5299 94.7189 32.757 95.8104 32.6286C97.1326 32.4731 97.3679 32.5703 96.9365 33.0942C96.5015 33.6217 96.9578 33.7557 99.1901 33.7557C101.587 33.7557 102.417 33.4718 104.969 31.7773C107.751 29.9303 108.269 29.7778 112.776 29.4826C121.232 28.929 129.767 26.2297 132.838 23.1389C133.551 22.4206 134.07 21.7688 133.992 21.69C133.914 21.6117 132.253 21.996 130.3 22.5444C128.348 23.0924 124.8 23.6833 122.417 23.8567C118.15 24.1668 118.074 24.152 117.502 22.8882C116.794 21.3227 115.306 21.0418 110.215 21.5114C105.902 21.9095 103.636 21.3104 98.8019 18.4949C94.5024 15.9905 87.0909 8.28892 84.5735 3.70933C83.4556 1.67561 82.391 0.00668078 82.2076 2.9607e-05C82.0241 -0.00662156 81.7213 1.10822 81.5343 2.47682ZM110.871 22.3628C108.589 22.57 108.21 23.0586 109.491 24.1427C109.92 24.5055 110.585 25.0852 110.968 25.4305C111.525 25.9329 112.183 25.8301 114.241 24.9189C117.377 23.5313 117.79 22.2211 114.936 22.7179C113.561 22.9573 113.243 22.9041 113.792 22.5265C114.47 22.062 114.47 22.0128 113.792 22.0855C113.373 22.1305 112.058 22.2554 110.871 22.3628ZM0.15106 24.7086C0.313162 25.3604 1.22784 30.2526 2.18368 35.5807C3.13902 40.9083 4.90079 50.7357 6.09852 57.4185L8.27647 69.5697H9.96507C10.8935 69.5697 11.6532 69.4464 11.6532 69.296C11.6532 68.7506 15.7459 42.1843 15.9069 41.686C15.9979 41.4046 16.346 43.1313 16.6814 45.5232C17.0168 47.915 17.9086 54.2464 18.6642 59.593L20.0377 69.3139H22.0704H24.103L27.0864 48.6973C28.7267 37.3581 29.9234 27.9339 29.7455 27.7548C28.8314 26.8344 28.1286 29.6816 26.3694 41.4337C25.3093 48.5131 24.3479 54.4004 24.2331 54.5166C24.1177 54.6322 23.0135 48.7224 21.7792 41.3831C20.5449 34.0438 19.3797 27.7861 19.1896 27.4765C18.7272 26.7234 17.4263 27.828 16.3577 29.8812C15.9075 30.7458 14.6935 36.5185 13.6594 42.7092C12.6253 48.8999 11.6481 53.6197 11.4875 53.1976C11.3274 52.7755 10.1348 47.0197 8.83748 40.4069C7.39533 33.0584 6.0975 27.7574 5.49889 26.7725C4.92569 25.8296 3.67614 24.8217 2.48654 24.3423C-0.128935 23.2888 -0.200075 23.2996 0.15106 24.7086ZM34.0003 31.2094C32.793 32.425 32.6979 34.406 33.794 35.5101C36.0797 37.8109 39.4879 34.1788 37.4421 31.6228C36.3638 30.2756 35.0812 30.1211 34.0003 31.2094ZM84.5705 33.8274C83.3905 34.8701 82.5455 36.2162 82.1603 37.6646C81.6725 39.5013 81.3554 39.8953 80.3655 39.8953C78.8009 39.8953 79.0209 41.6169 80.615 41.8461C81.7192 42.0052 81.7289 42.0978 81.8803 54.2168C82.0236 65.6916 82.0973 66.5148 83.0999 67.8706C83.9089 68.9655 84.8047 69.4249 86.8094 69.7739C90.398 70.3986 91.1476 69.6439 88.9711 67.5969L87.3684 66.0896V54.0157V41.9418H89.6551C91.6029 41.9418 91.9418 41.7903 91.9418 40.9185C91.9418 40.0467 91.6029 39.8953 89.6551 39.8953H87.3684V36.0581C87.3684 33.9333 87.1494 32.2208 86.878 32.2208C86.6082 32.2208 85.5695 32.9438 84.5705 33.8274ZM50.4001 40.435C49.492 41.0377 48.7414 41.796 48.7323 42.1198C48.7231 42.4503 48.4442 42.3526 48.0971 41.8973C47.2663 40.8075 45.4943 39.8953 44.2087 39.8953C43.172 39.8953 43.1588 40.0789 43.1588 54.7325V69.5697H45.9537H48.7486V57.1141C48.7486 45.6971 48.8258 44.5879 49.678 43.8118C50.1892 43.3462 51.3381 42.965 52.2309 42.965C53.5069 42.965 53.9617 43.2464 54.351 44.2774C54.6233 44.9993 54.8464 50.5397 54.8464 56.5902C54.8464 63.1943 55.0568 67.9857 55.3724 68.5802C55.7586 69.3062 56.4415 69.5697 57.937 69.5697H59.9752L59.8248 56.0223L59.6739 42.4749L58.3217 41.1145C56.4364 39.2174 52.7167 38.8981 50.4001 40.435ZM69.3182 39.8477C65.5975 40.7732 63.4835 43.6005 63.4871 47.647C63.4896 50.575 64.6015 52.3007 69.0545 56.2848C73.013 59.8273 74.1563 61.5198 74.1563 63.8369C74.1563 65.951 72.7482 67.0116 69.9417 67.0116C68.031 67.0116 67.2459 66.7112 65.7896 65.4235L63.9932 63.8359V66.6621V69.4884L67.2388 69.8383C71.5129 70.2993 73.357 69.8317 75.7098 67.692C78.0173 65.5928 78.9665 63.0792 78.5178 60.254C78.0097 57.0563 77.0874 55.7266 72.4139 51.455C68.6495 48.0138 68.0585 47.2479 68.0585 45.8102C68.0585 43.5657 69.3934 42.4534 72.0871 42.4534C73.8733 42.4534 74.5253 42.743 75.7779 44.0927L77.2988 45.7319L76.9273 43.1973C76.5233 40.4386 76.0868 39.9188 74.1563 39.8963C73.4576 39.8881 72.4286 39.7878 71.8696 39.6737C71.3107 39.5596 70.1627 39.6379 69.3182 39.8477ZM98.7364 39.9398C94.9165 41.0551 92.6161 45.3978 92.1034 52.4624C91.5378 60.2627 93.6177 67.009 97.1702 68.8959C99.5143 70.1407 103.748 70.0599 105.522 68.7368C109.158 66.0246 110.496 61.4103 110.135 52.8303C109.794 44.7414 107.935 41.1984 103.375 39.9469C101.054 39.31 100.896 39.31 98.7364 39.9398ZM120.581 40.3675C119.703 40.9062 118.829 41.601 118.639 41.9111C118.412 42.2815 118 42.1203 117.44 41.4429C116.971 40.8745 115.844 40.2652 114.936 40.0887L113.284 39.7674V54.6685V69.5697H115.792H118.299L118.46 57.3433C118.606 46.1689 118.703 45.0243 119.588 44.041C120.207 43.3534 121.174 42.965 122.269 42.965C123.639 42.965 124.08 43.227 124.476 44.2774C124.749 44.9993 124.972 50.5397 124.972 56.5902C124.972 63.1943 125.182 67.9857 125.498 68.5802C125.882 69.3032 126.567 69.5697 128.039 69.5697H130.053L130.052 56.9069C130.052 45.8736 129.938 44.0144 129.163 42.4606C127.632 39.3857 123.73 38.4341 120.581 40.3675ZM32.9957 54.7325V69.5697H35.5365H38.0773V54.7325V39.8953H35.5365H32.9957V54.7325ZM100.189 42.2841C98.7247 42.877 97.9838 45.6409 97.7012 51.5609C97.3562 58.7902 98.1423 65.2956 99.5301 66.6933C101.017 68.1904 102.834 67.4577 103.827 64.9594C104.452 63.3867 104.644 61.1105 104.64 55.3618C104.633 46.5311 104.361 44.4222 103.04 42.9947C102.07 41.9469 101.42 41.7852 100.189 42.2841Z" fill="#011689"/>
</svg>
