<svg width="24" height="24" viewBox="0 0 24 24" fill="none" xmlns="http://www.w3.org/2000/svg">
<path d="M12 21.75C17.3848 21.75 21.75 17.3848 21.75 12C21.75 6.61522 17.3848 2.25 12 2.25C6.61522 2.25 2.25 6.61522 2.25 12C2.25 17.3848 6.61522 21.75 12 21.75Z" stroke="#26A577" stroke-width="1.5" stroke-linecap="round" stroke-linejoin="round"/>
<path d="M12 18.1953C12.5048 18.1953 12.9141 17.7861 12.9141 17.2812C12.9141 16.7764 12.5048 16.3672 12 16.3672C11.4952 16.3672 11.0859 16.7764 11.0859 17.2812C11.0859 17.7861 11.4952 18.1953 12 18.1953Z" fill="#26A577"/>
<path d="M12 14.4375V13.625C12.6428 13.625 13.2711 13.4344 13.8056 13.0773C14.3401 12.7202 14.7566 12.2126 15.0026 11.6187C15.2486 11.0249 15.313 10.3714 15.1876 9.74096C15.0622 9.11052 14.7526 8.53143 14.2981 8.0769C13.8436 7.62238 13.2645 7.31285 12.634 7.18745C12.0036 7.06205 11.3501 7.12641 10.7563 7.37239C10.1624 7.61838 9.65484 8.03494 9.29772 8.5694C8.94061 9.10386 8.75 9.73221 8.75 10.375" stroke="#26A577" stroke-width="1.5" stroke-linecap="round" stroke-linejoin="round"/>
</svg>
