<svg width="32" height="32" viewBox="0 0 32 32" fill="none" xmlns="http://www.w3.org/2000/svg">
<g id="Paperclip">
<path id="Vector" d="M12.9726 21.78L22.8721 11.8805C23.2472 11.5054 23.4579 10.9967 23.4579 10.4663C23.4579 9.93585 23.2472 9.42715 22.8721 9.05208C22.4971 8.67701 21.9884 8.4663 21.4579 8.4663C20.9275 8.4663 20.4188 8.67701 20.0437 9.05208L7.31582 21.78C5.79213 23.3037 5.82327 25.8052 7.38537 27.3673C8.94747 28.9294 11.449 28.9605 12.9727 27.4369L25.8769 14.5327C27.0021 13.4075 27.6342 11.8813 27.6342 10.29C27.6342 8.69874 27.0021 7.17261 25.8769 6.0474C24.7516 4.92218 23.2255 4.29004 21.6342 4.29004C20.0429 4.29004 18.5168 4.92218 17.3916 6.04739L7.49208 15.9469" stroke="#00B185" stroke-width="1.5" stroke-linecap="round" stroke-linejoin="round"/>
</g>
</svg>
