<svg width="18" height="30" viewBox="0 0 18 30" fill="none" xmlns="http://www.w3.org/2000/svg">
<path fill-rule="evenodd" clip-rule="evenodd" d="M8.1702 1.95717L6.05424 3.91427L8.18784 5.88676L10.3214 7.85925V6.47461V5.08996L12.2437 5.07262L14.166 5.05527L14.1852 3.89875L14.2045 2.74222L12.2806 2.72488L10.3567 2.70753L10.3214 1.3538L10.2862 0L8.1702 1.95717ZM1.82294 7.5442C1.38742 7.66778 0.796563 8.02457 0.567938 8.30213C-0.0481723 9.05034 -0.172183 10.0037 0.240908 10.8163C0.353281 11.0374 0.969884 11.6542 2.50148 13.0781C3.65984 14.1549 4.60757 15.0532 4.60757 15.0744C4.60757 15.0956 4.41894 15.1287 4.18848 15.148C3.38304 15.2155 2.55213 15.7166 2.21706 16.3369C2.1274 16.5028 1.94907 17.0109 1.82062 17.4662C1.69223 17.9215 1.42177 18.8662 1.21967 19.5656C0.248668 22.9263 0.224471 23.0256 0.254663 23.5255C0.306723 24.3879 0.447947 24.5684 2.64652 26.5814C4.73546 28.4941 5.23038 28.8551 6.43629 29.3456C7.45512 29.7601 8.66823 30 9.74596 30C10.4375 30 11.7412 29.7979 12.4024 29.5882C14.769 28.8375 16.722 27.0359 17.5054 24.8806C17.9851 23.5608 17.9617 23.9257 17.9922 17.3157C18.0074 14.0158 17.9997 11.1893 17.9749 11.0346C17.9479 10.8657 17.854 10.6748 17.7399 10.5567C17.3762 10.1803 16.8046 10.2025 15.8367 10.6307C14.7446 11.1137 13.9534 11.8311 13.4267 12.8159C13.0485 13.5229 12.9291 14.0525 12.9112 15.1023C12.9029 15.5836 12.8803 15.9778 12.8607 15.9781C12.8412 15.9785 10.9048 14.2021 8.55769 12.0306C6.21056 9.85907 4.13142 7.98421 3.93743 7.86421C3.28033 7.45766 2.52906 7.34399 1.82294 7.5442Z" fill="#989BA1"/>
</svg>
